<svg xmlns="http://www.w3.org/2000/svg" viewBox="0 0 395.42 95.66"><defs><style>.cls-1{fill:#231f20;}</style></defs><g id="Layer_2" data-name="Layer 2"><g id="Layer_1-2" data-name="Layer 1"><path class="cls-1" d="M0,8.53V4.32H4.32V8.53Zm0,4.32V8.53H4.32v4.32Zm0,4.32V12.85H4.32v4.32Zm0,4.29V17.17H4.32v4.29Zm0,4.32V21.46H4.32v4.32Zm0,4.3v-4.3H4.32v4.3ZM0,34.4V30.08H4.32V34.4ZM4.32,4.32V0h4.3V4.32Zm0,4.21V4.32h4.3V8.53Zm0,12.93V17.17h4.3v4.29Zm0,4.32V21.46h4.3v4.32Zm0,8.62V30.08h4.3V34.4Zm0,4.21V34.4h4.3v4.21ZM8.62,4.32V0h4.31V4.32Zm0,21.46V21.46h4.31v4.32Zm0,12.83V34.4h4.31v4.21Zm4.31,0v4.25H8.62V38.61Zm0-34.29V0h4.21V4.32Zm0,8.53V8.53h4.21v4.32Zm0,4.32V12.85h4.21v4.32Zm0,8.61V21.46h4.21v4.32Zm0,4.3v-4.3h4.21v4.3Zm0,8.53V34.4h4.21v4.21Zm4.21,0v4.25H12.93V38.61Zm0-34.29V0h4.32V4.32Zm0,8.53V8.53h4.32v4.32Zm0,4.32V12.85h4.32v4.32Zm0,8.61V21.46h4.32v4.32Zm0,4.3v-4.3h4.32v4.3Zm0,8.53V34.4h4.32v4.21Zm4.32,0v4.25H17.14V38.61Zm0-34.29V0h4.32V4.32Zm0,8.53V8.53h4.32v4.32Zm0,4.32V12.85h4.32v4.32Zm0,8.61V21.46h4.32v4.32Zm0,4.3v-4.3h4.32v4.3Zm0,8.53V34.4h4.32v4.21Zm4.32,0v4.25H21.46V38.61Zm0-34.29V0h4.3V4.32Zm0,12.85V12.85h4.3v4.32Zm0,21.44V34.4h4.3v4.21Zm4.3,0v4.25h-4.3V38.61Zm0-34.29V0H34.4V4.32Zm0,4.21V4.32H34.4V8.53Zm0,8.64V12.85H34.4v4.32Zm0,4.29V17.17H34.4v4.29Zm0,12.94V30.08H34.4V34.4Zm0,4.21V34.4H34.4v4.21Zm4.32,0v4.25H30.08V38.61Zm0-30.08V4.32h4.29V8.53Zm0,4.32V8.53h4.29v4.32Zm0,4.32V12.85h4.29v4.32Zm0,4.29V17.17h4.29v4.29Zm0,4.32V21.46h4.29v4.32Zm0,4.3v-4.3h4.29v4.3Zm0,4.32V30.08h4.29V34.4Zm0,4.21V34.4h4.29v4.21Zm4.29,0v4.25H34.4V38.61Zm0-25.76V8.53h4.24v4.32Zm0,4.32V12.85h4.24v4.32Zm0,4.29V17.17h4.24v4.29Zm0,4.32V21.46h4.24v4.32Zm0,4.3v-4.3h4.24v4.3Zm0,4.32V30.08h4.24V34.4Zm0,4.21V34.4h4.24v4.21Z"/><path class="cls-1" d="M38.69,8.53V4.32H43V8.53Zm0,4.32V8.53H43v4.32Zm0,4.32V12.85H43v4.32Zm0,4.29V17.17H43v4.29Zm0,4.32V21.46H43v4.32Zm0,4.3v-4.3H43v4.3Zm0,4.32V30.08H43V34.4Zm0,4.21V34.4H43v4.21ZM43,4.32V0h4.3V4.32Zm0,4.21V4.32h4.3V8.53Zm0,30.08V34.4h4.3v4.21Zm4.3,0v4.25H43V38.61Zm0-34.29V0h4.32V4.32Zm0,34.29V34.4h4.32v4.21Zm4.32,0v4.25H47.31V38.61Zm0-34.29V0h4.21V4.32Zm0,8.53V8.53h4.21v4.32Zm0,4.32V12.85h4.21v4.32Zm0,4.29V17.17h4.21v4.29Zm0,8.62v-4.3h4.21v4.3Zm0,4.32V30.08h4.21V34.4Zm0,4.21V34.4h4.21v4.21Zm4.21,0v4.25H51.63V38.61Zm0-34.29V0h4.32V4.32Zm0,8.53V8.53h4.32v4.32Zm0,4.32V12.85h4.32v4.32Zm0,4.29V17.17h4.32v4.29Zm0,8.62v-4.3h4.32v4.3Zm0,4.32V30.08h4.32V34.4Zm0,4.21V34.4h4.32v4.21Zm4.32,0v4.25H55.84V38.61Zm0-34.29V0h4.31V4.32Zm0,8.53V8.53h4.31v4.32Zm0,4.32V12.85h4.31v4.32Zm0,4.29V17.17h4.31v4.29Zm0,8.62v-4.3h4.31v4.3Zm0,4.32V30.08h4.31V34.4Zm0,4.21V34.4h4.31v4.21ZM64.47,4.32V0h4.3V4.32Zm0,34.29V34.4h4.3v4.21Zm4.3,0v4.25h-4.3V38.61Zm0-34.29V0h4.32V4.32Zm0,4.21V4.32h4.32V8.53Zm0,30.08V34.4h4.32v4.21Zm4.32,0v4.25H68.77V38.61Zm0-30.08V4.32h4.3V8.53Zm0,4.32V8.53h4.3v4.32Zm0,4.32V12.85h4.3v4.32Zm0,4.29V17.17h4.3v4.29Zm0,4.32V21.46h4.3v4.32Zm0,4.3v-4.3h4.3v4.3Zm0,4.32V30.08h4.3V34.4Zm0,4.21V34.4h4.3v4.21Zm4.3,0v4.25h-4.3V38.61Zm0-25.76V8.53h4.23v4.32Zm0,4.32V12.85h4.23v4.32Zm0,4.29V17.17h4.23v4.29Zm0,4.32V21.46h4.23v4.32Zm0,4.3v-4.3h4.23v4.3Zm0,4.32V30.08h4.23V34.4Zm0,4.21V34.4h4.23v4.21Zm4.23,0v4.25H77.39V38.61Z"/><path class="cls-1" d="M77.39,4.32V0h4.32V4.32Zm0,4.21V4.32h4.32V8.53Zm0,4.32V8.53h4.32v4.32Zm0,4.32V12.85h4.32v4.32Zm0,4.29V17.17h4.32v4.29Zm0,4.32V21.46h4.32v4.32Zm0,4.3v-4.3h4.32v4.3Zm0,4.32V30.08h4.32V34.4Zm0,4.21V34.4h4.32v4.21ZM81.71,4.32V0H86V4.32Zm0,34.29V34.4H86v4.21Zm4.29,0v4.25H81.71V38.61ZM86,4.32V0h4.32V4.32Zm0,34.29V34.4h4.32v4.21Zm4.32,0v4.25H86V38.61Zm0-34.29V0h4.21V4.32Zm0,4.21V4.32h4.21V8.53Zm0,4.32V8.53h4.21v4.32Zm0,4.32V12.85h4.21v4.32Zm0,4.29V17.17h4.21v4.29Zm0,4.32V21.46h4.21v4.32Zm0,4.3v-4.3h4.21v4.3Zm0,8.53V34.4h4.21v4.21Zm4.21,0v4.25H90.32V38.61Zm0-30.08V4.32h4.32V8.53Zm0,4.32V8.53h4.32v4.32Zm0,4.32V12.85h4.32v4.32Zm0,4.29V17.17h4.32v4.29Zm0,4.32V21.46h4.32v4.32Zm0,4.3v-4.3h4.32v4.3Zm0,8.53V34.4h4.32v4.21Zm4.32,0v4.25H94.53V38.61Zm0-8.53v-4.3h4.32v4.3Zm0,8.53V34.4h4.32v4.21Zm4.32,0v4.25H98.85V38.61Zm0-8.53v-4.3h4.29v4.3Zm0,8.53V34.4h4.29v4.21Zm4.29,0v4.25h-4.29V38.61Zm0-8.53v-4.3h4.32v4.3Zm0,4.32V30.08h4.32V34.4Zm0,4.21V34.4h4.32v4.21Zm4.32,0v4.25h-4.32V38.61Zm0-4.21V30.08h4.3V34.4Zm0,4.21V34.4h4.3v4.21Zm4.3,0v4.25h-4.3V38.61Z"/><path class="cls-1" d="M111.78,4.32V0h4.32V4.32Zm0,4.21V4.32h4.32V8.53Zm0,4.32V8.53h4.32v4.32Zm0,4.32V12.85h4.32v4.32Zm0,4.29V17.17h4.32v4.29Zm0,4.32V21.46h4.32v4.32Zm0,4.3v-4.3h4.32v4.3Zm0,4.32V30.08h4.32V34.4ZM116.1,4.32V0h4.3V4.32Zm0,30.08V30.08h4.3V34.4Zm0,4.21V34.4h4.3v4.21Zm4.3-34.29V0h4.32V4.32Zm0,34.29V34.4h4.32v4.21Zm4.32,0v4.25H120.4V38.61Zm0-34.29V0h4.21V4.32Zm0,4.21V4.32h4.21V8.53Zm0,4.32V8.53h4.21v4.32Zm0,4.32V12.85h4.21v4.32Zm0,4.29V17.17h4.21v4.29Zm0,4.32V21.46h4.21v4.32Zm0,4.3v-4.3h4.21v4.3Zm0,8.53V34.4h4.21v4.21Zm4.21,0v4.25h-4.21V38.61Zm0-30.08V4.32h4.32V8.53Zm0,4.32V8.53h4.32v4.32Zm0,4.32V12.85h4.32v4.32Zm0,4.29V17.17h4.32v4.29Zm0,4.32V21.46h4.32v4.32Zm0,4.3v-4.3h4.32v4.3Zm0,8.53V34.4h4.32v4.21Zm4.32,0v4.25h-4.32V38.61Zm0-34.29V0h4.31V4.32Zm0,4.21V4.32h4.31V8.53Zm0,4.32V8.53h4.31v4.32Zm0,4.32V12.85h4.31v4.32Zm0,4.29V17.17h4.31v4.29Zm0,4.32V21.46h4.31v4.32Zm0,4.3v-4.3h4.31v4.3Zm0,8.53V34.4h4.31v4.21Zm4.31,0v4.25h-4.31V38.61Zm0-34.29V0h4.3V4.32Zm0,34.29V34.4h4.3v4.21Zm4.3,0v4.25h-4.3V38.61Zm0-34.29V0h4.32V4.32Zm0,30.08V30.08h4.32V34.4Zm0,4.21V34.4h4.32v4.21Zm4.32,0v4.25h-4.32V38.61Zm0-34.29V0h4.3V4.32Zm0,4.21V4.32h4.3V8.53Zm0,4.32V8.53h4.3v4.32Zm0,4.32V12.85h4.3v4.32Zm0,4.29V17.17h4.3v4.29Zm0,4.32V21.46h4.3v4.32Zm0,4.3v-4.3h4.3v4.3Zm0,4.32V30.08h4.3V34.4Zm0,4.21V34.4h4.3v4.21Zm4.3,0v4.25h-4.3V38.61Zm0-30.08V4.32h4.23V8.53Zm0,4.32V8.53h4.23v4.32Zm0,4.32V12.85h4.23v4.32Zm0,4.29V17.17h4.23v4.29Zm0,4.32V21.46h4.23v4.32Zm0,4.3v-4.3h4.23v4.3Zm0,4.32V30.08h4.23V34.4Zm0,4.21V34.4h4.23v4.21Z"/><path class="cls-1" d="M150.48,4.32V0h4.31V4.32Zm0,4.21V4.32h4.31V8.53Zm0,4.32V8.53h4.31v4.32Zm4.31-8.53V0h4.3V4.32Zm0,8.53V8.53h4.3v4.32Zm4.3-8.53V0h4.32V4.32Zm0,8.53V8.53h4.32v4.32Zm0,4.32V12.85h4.32v4.32Zm0,4.29V17.17h4.32v4.29Zm0,4.32V21.46h4.32v4.32Zm0,4.3v-4.3h4.32v4.3Zm0,4.32V30.08h4.32V34.4Zm0,4.21V34.4h4.32v4.21Zm4.32-34.29V0h4.21V4.32Zm0,34.29V34.4h4.21v4.21Zm4.21,0v4.25h-4.21V38.61Zm0-34.29V0h4.32V4.32Zm0,34.29V34.4h4.32v4.21Zm4.32,0v4.25h-4.32V38.61Zm0-34.29V0h4.32V4.32Zm0,8.53V8.53h4.32v4.32Zm0,4.32V12.85h4.32v4.32Zm0,4.29V17.17h4.32v4.29Zm0,4.32V21.46h4.32v4.32Zm0,4.3v-4.3h4.32v4.3Zm0,4.32V30.08h4.32V34.4Zm0,4.21V34.4h4.32v4.21Zm4.32,0v4.25h-4.32V38.61Zm0-34.29V0h4.29V4.32Zm0,8.53V8.53h4.29v4.32Zm0,4.32V12.85h4.29v4.32Zm0,4.29V17.17h4.29v4.29Zm0,4.32V21.46h4.29v4.32Zm0,4.3v-4.3h4.29v4.3Zm0,4.32V30.08h4.29V34.4Zm0,4.21V34.4h4.29v4.21Zm4.29,0v4.25h-4.29V38.61Zm0-34.29V0h4.32V4.32Zm0,4.21V4.32h4.32V8.53Zm0,4.32V8.53h4.32v4.32Zm0,4.32V12.85h4.32v4.32Zm4.32-8.64V4.32h4.3V8.53Zm0,4.32V8.53h4.3v4.32Zm0,4.32V12.85h4.3v4.32Z"/><path class="cls-1" d="M184.87,8.53V4.32h4.32V8.53Zm0,4.32V8.53h4.32v4.32Zm0,4.32V12.85h4.32v4.32Zm0,4.29V17.17h4.32v4.29Zm0,4.32V21.46h4.32v4.32Zm0,4.3v-4.3h4.32v4.3Zm0,4.32V30.08h4.32V34.4Zm0,4.21V34.4h4.32v4.21Zm4.32-34.29V0h4.3V4.32Zm0,4.21V4.32h4.3V8.53Zm0,30.08V34.4h4.3v4.21Zm4.3,0v4.25h-4.3V38.61Zm0-34.29V0h4.32V4.32Zm0,34.29V34.4h4.32v4.21Zm4.32,0v4.25h-4.32V38.61Zm0-34.29V0H202V4.32Zm0,8.53V8.53H202v4.32Zm0,4.32V12.85H202v4.32Zm0,4.29V17.17H202v4.29Zm0,8.62v-4.3H202v4.3Zm0,4.32V30.08H202V34.4Zm0,4.21V34.4H202v4.21Zm4.21,0v4.25h-4.21V38.61Zm0-34.29V0h4.32V4.32Zm0,8.53V8.53h4.32v4.32Zm0,4.32V12.85h4.32v4.32Zm0,4.29V17.17h4.32v4.29Zm0,8.62v-4.3h4.32v4.3Zm0,4.32V30.08h4.32V34.4Zm0,4.21V34.4h4.32v4.21Zm4.32,0v4.25H202V38.61Zm0-34.29V0h4.31V4.32Zm0,8.53V8.53h4.31v4.32Zm0,4.32V12.85h4.31v4.32Zm0,4.29V17.17h4.31v4.29Zm0,8.62v-4.3h4.31v4.3Zm0,4.32V30.08h4.31V34.4Zm0,4.21V34.4h4.31v4.21Zm4.31-34.29V0H215V4.32Zm0,34.29V34.4H215v4.21Zm4.3,0v4.25h-4.3V38.61Zm0-34.29V0h4.32V4.32Zm0,4.21V4.32h4.32V8.53Zm0,30.08V34.4h4.32v4.21Zm4.32,0v4.25H215V38.61Zm0-30.08V4.32h4.3V8.53Zm0,4.32V8.53h4.3v4.32Zm0,4.32V12.85h4.3v4.32Zm0,4.29V17.17h4.3v4.29Zm0,4.32V21.46h4.3v4.32Zm0,4.3v-4.3h4.3v4.3Zm0,4.32V30.08h4.3V34.4Zm0,4.21V34.4h4.3v4.21Zm4.3,0v4.25h-4.3V38.61Zm0-25.76V8.53h4.23v4.32Zm0,4.32V12.85h4.23v4.32Zm0,4.29V17.17h4.23v4.29Zm0,4.32V21.46h4.23v4.32Zm0,4.3v-4.3h4.23v4.3Zm0,4.32V30.08h4.23V34.4Zm0,4.21V34.4h4.23v4.21Zm4.23,0v4.25h-4.23V38.61Z"/><path class="cls-1" d="M223.57,4.32V0h4.32V4.32Zm0,4.21V4.32h4.32V8.53Zm0,4.32V8.53h4.32v4.32Zm4.32-8.53V0h4.29V4.32Zm0,8.53V8.53h4.29v4.32Zm4.29-8.53V0h4.32V4.32Zm0,8.53V8.53h4.32v4.32Zm0,4.32V12.85h4.32v4.32Zm0,4.29V17.17h4.32v4.29Zm0,4.32V21.46h4.32v4.32Zm0,4.3v-4.3h4.32v4.3Zm0,4.32V30.08h4.32V34.4Zm0,4.21V34.4h4.32v4.21ZM236.5,4.32V0h4.21V4.32Zm0,34.29V34.4h4.21v4.21Zm4.21,0v4.25H236.5V38.61Zm0-34.29V0H245V4.32Zm0,34.29V34.4H245v4.21Zm4.32,0v4.25h-4.32V38.61Zm0-34.29V0h4.32V4.32Zm0,8.53V8.53h4.32v4.32Zm0,4.32V12.85h4.32v4.32Zm0,4.29V17.17h4.32v4.29Zm0,4.32V21.46h4.32v4.32Zm0,4.3v-4.3h4.32v4.3Zm0,4.32V30.08h4.32V34.4Zm0,4.21V34.4h4.32v4.21Zm4.32,0v4.25H245V38.61Zm0-34.29V0h4.3V4.32Zm0,8.53V8.53h4.3v4.32Zm0,4.32V12.85h4.3v4.32Zm0,4.29V17.17h4.3v4.29Zm0,4.32V21.46h4.3v4.32Zm0,4.3v-4.3h4.3v4.3Zm0,4.32V30.08h4.3V34.4Zm0,4.21V34.4h4.3v4.21Zm4.3,0v4.25h-4.3V38.61Zm0-34.29V0H258V4.32Zm0,4.21V4.32H258V8.53Zm0,4.32V8.53H258v4.32Zm0,4.32V12.85H258v4.32ZM258,8.53V4.32h4.3V8.53Zm0,4.32V8.53h4.3v4.32Zm0,4.32V12.85h4.3v4.32Z"/><path class="cls-1" d="M258,4.32V0h4.32V4.32Zm0,4.21V4.32h4.32V8.53Zm0,4.32V8.53h4.32v4.32Zm0,4.32V12.85h4.32v4.32Zm0,4.29V17.17h4.32v4.29Zm0,4.32V21.46h4.32v4.32Zm0,4.3v-4.3h4.32v4.3Zm0,4.32V30.08h4.32V34.4Zm0,4.21V34.4h4.32v4.21Zm4.32-34.29V0h4.3V4.32Zm0,34.29V34.4h4.3v4.21Zm4.3,0v4.25h-4.3V38.61Zm0-34.29V0h4.32V4.32Zm0,34.29V34.4h4.32v4.21Zm4.32,0v4.25h-4.32V38.61Zm0-34.29V0h4.21V4.32Zm0,4.21V4.32h4.21V8.53Zm0,4.32V8.53h4.21v4.32Zm0,4.32V12.85h4.21v4.32Zm0,4.29V17.17h4.21v4.29Zm0,4.32V21.46h4.21v4.32Zm0,4.3v-4.3h4.21v4.3Zm0,4.32V30.08h4.21V34.4Zm0,4.21V34.4h4.21v4.21Zm4.21,0v4.25H270.9V38.61Zm0-30.08V4.32h4.32V8.53Zm0,4.32V8.53h4.32v4.32Zm0,4.32V12.85h4.32v4.32Zm0,4.29V17.17h4.32v4.29Zm0,4.32V21.46h4.32v4.32Zm0,4.3v-4.3h4.32v4.3Zm0,4.32V30.08h4.32V34.4Zm0,4.21V34.4h4.32v4.21Zm4.32,0v4.25h-4.32V38.61Z"/><path class="cls-1" d="M275.11,8.53V4.32h4.32V8.53Zm0,4.32V8.53h4.32v4.32Zm0,4.32V12.85h4.32v4.32Zm0,4.29V17.17h4.32v4.29Zm0,4.32V21.46h4.32v4.32Zm0,4.3v-4.3h4.32v4.3Zm0,4.32V30.08h4.32V34.4Zm4.32-30.08V0h4.29V4.32Zm0,4.21V4.32h4.29V8.53Zm0,25.87V30.08h4.29V34.4Zm0,4.21V34.4h4.29v4.21Zm4.29-34.29V0H288V4.32Zm0,34.29V34.4H288v4.21Zm4.32,0v4.25h-4.32V38.61Zm0-34.29V0h4.21V4.32Zm0,8.53V8.53h4.21v4.32Zm0,4.32V12.85h4.21v4.32Zm0,4.29V17.17h4.21v4.29Zm0,4.32V21.46h4.21v4.32Zm0,4.3v-4.3h4.21v4.3Zm0,8.53V34.4h4.21v4.21Zm4.21,0v4.25H288V38.61Zm0-34.29V0h4.32V4.32Zm0,8.53V8.53h4.32v4.32Zm0,4.32V12.85h4.32v4.32Zm0,4.29V17.17h4.32v4.29Zm0,4.32V21.46h4.32v4.32Zm0,4.3v-4.3h4.32v4.3Zm0,8.53V34.4h4.32v4.21Zm4.32,0v4.25h-4.32V38.61Zm0-34.29V0h4.32V4.32Zm0,8.53V8.53h4.32v4.32Zm0,4.32V12.85h4.32v4.32Zm0,4.29V17.17h4.32v4.29Zm0,4.32V21.46h4.32v4.32Zm0,4.3v-4.3h4.32v4.3Zm0,8.53V34.4h4.32v4.21Zm4.32,0v4.25h-4.32V38.61Zm0-34.29V0h4.3V4.32Zm0,34.29V34.4h4.3v4.21Zm4.3,0v4.25h-4.3V38.61Zm0-34.29V0h4.31V4.32Zm0,4.21V4.32h4.31V8.53Zm0,25.87V30.08h4.31V34.4Zm0,4.21V34.4h4.31v4.21Zm4.31,0v4.25h-4.31V38.61Zm0-30.08V4.32h4.3V8.53Zm0,4.32V8.53h4.3v4.32Zm0,4.32V12.85h4.3v4.32Zm0,4.29V17.17h4.3v4.29Zm0,4.32V21.46h4.3v4.32Zm0,4.3v-4.3h4.3v4.3Zm0,4.32V30.08h4.3V34.4Zm0,4.21V34.4h4.3v4.21Zm4.3,0v4.25h-4.3V38.61Zm0-25.76V8.53H318v4.32Zm0,4.32V12.85H318v4.32Zm0,4.29V17.17H318v4.29Zm0,4.32V21.46H318v4.32Zm0,4.3v-4.3H318v4.3Zm0,4.32V30.08H318V34.4Zm0,4.21V34.4H318v4.21Z"/><path class="cls-1" d="M313.8,4.32V0h4.32V4.32Zm0,4.21V4.32h4.32V8.53Zm0,4.32V8.53h4.32v4.32Zm0,4.32V12.85h4.32v4.32Zm0,4.29V17.17h4.32v4.29Zm0,4.32V21.46h4.32v4.32Zm0,4.3v-4.3h4.32v4.3Zm0,4.32V30.08h4.32V34.4Zm0,4.21V34.4h4.32v4.21Zm4.32-34.29V0h4.3V4.32Zm0,34.29V34.4h4.3v4.21Zm4.3,0v4.25h-4.3V38.61Zm0-34.29V0h4.31V4.32Zm0,34.29V34.4h4.31v4.21Zm4.31,0v4.25h-4.31V38.61Zm0-34.29V0H331V4.32Zm0,4.21V4.32H331V8.53Zm0,12.93V17.17H331v4.29Zm0,4.32V21.46H331v4.32Zm0,4.3v-4.3H331v4.3Zm0,4.32V30.08H331V34.4Zm0,4.21V34.4H331v4.21Zm4.22,0v4.25h-4.22V38.61Zm0-30.08V4.32h4.31V8.53Zm0,4.32V8.53h4.31v4.32Zm0,12.93V21.46h4.31v4.32Zm0,4.3v-4.3h4.31v4.3Zm0,4.32V30.08h4.31V34.4Zm0,4.21V34.4h4.31v4.21Zm4.31,0v4.25H331V38.61Zm0-34.29V0h4.32V4.32Zm0,4.21V4.32h4.32V8.53Zm0,4.32V8.53h4.32v4.32Zm0,4.32V12.85h4.32v4.32Zm0,12.91v-4.3h4.32v4.3Zm0,4.32V30.08h4.32V34.4Zm0,4.21V34.4h4.32v4.21Zm4.32-34.29V0h4.3V4.32Zm0,34.29V34.4h4.3v4.21Zm4.3,0v4.25h-4.3V38.61Zm0-34.29V0h4.32V4.32Zm0,34.29V34.4h4.32v4.21Zm4.32,0v4.25h-4.32V38.61Zm0-34.29V0h4.29V4.32Zm0,4.21V4.32h4.29V8.53Zm0,4.32V8.53h4.29v4.32Zm0,4.32V12.85h4.29v4.32Zm0,4.29V17.17h4.29v4.29Zm0,4.32V21.46h4.29v4.32Zm0,4.3v-4.3h4.29v4.3Zm0,4.32V30.08h4.29V34.4Zm0,4.21V34.4h4.29v4.21Zm4.29,0v4.25H348.2V38.61Zm0-30.08V4.32h4.24V8.53Zm0,4.32V8.53h4.24v4.32Zm0,4.32V12.85h4.24v4.32Zm0,4.29V17.17h4.24v4.29Zm0,4.32V21.46h4.24v4.32Zm0,4.3v-4.3h4.24v4.3Zm0,4.32V30.08h4.24V34.4Zm0,4.21V34.4h4.24v4.21Zm4.24,0v4.25h-4.24V38.61Z"/><path class="cls-1" d="M352.49,8.53V4.32h4.32V8.53Zm0,4.32V8.53h4.32v4.32Zm0,4.32V12.85h4.32v4.32Zm0,4.29V17.17h4.32v4.29Zm0,4.32V21.46h4.32v4.32Zm0,4.3v-4.3h4.32v4.3Zm0,4.32V30.08h4.32V34.4Zm4.32-30.08V0h4.3V4.32Zm0,4.21V4.32h4.3V8.53Zm0,12.93V17.17h4.3v4.29Zm0,4.32V21.46h4.3v4.32Zm0,8.62V30.08h4.3V34.4Zm0,4.21V34.4h4.3v4.21Zm4.3-34.29V0h4.32V4.32Zm0,21.46V21.46h4.32v4.32Zm0,12.83V34.4h4.32v4.21Zm4.32,0v4.25h-4.32V38.61Zm0-34.29V0h4.21V4.32Zm0,8.53V8.53h4.21v4.32Zm0,4.32V12.85h4.21v4.32Zm0,8.61V21.46h4.21v4.32Zm0,4.3v-4.3h4.21v4.3Zm0,8.53V34.4h4.21v4.21Zm4.21,0v4.25h-4.21V38.61Zm0-34.29V0H374V4.32Zm0,8.53V8.53H374v4.32Zm0,4.32V12.85H374v4.32Zm0,8.61V21.46H374v4.32Zm0,4.3v-4.3H374v4.3Zm0,8.53V34.4H374v4.21Zm4.32,0v4.25h-4.32V38.61Zm0-34.29V0h4.32V4.32Zm0,8.53V8.53h4.32v4.32Zm0,4.32V12.85h4.32v4.32Zm0,8.61V21.46h4.32v4.32Zm0,4.3v-4.3h4.32v4.3Zm0,8.53V34.4h4.32v4.21Zm4.32,0v4.25H374V38.61Zm0-34.29V0h4.29V4.32Zm0,12.85V12.85h4.29v4.32Zm0,21.44V34.4h4.29v4.21Zm4.29,0v4.25h-4.29V38.61Zm0-34.29V0h4.32V4.32Zm0,4.21V4.32h4.32V8.53Zm0,8.64V12.85h4.32v4.32Zm0,4.29V17.17h4.32v4.29Zm0,12.94V30.08h4.32V34.4Zm0,4.21V34.4h4.32v4.21Zm4.32,0v4.25h-4.32V38.61Zm0-30.08V4.32h4.3V8.53Zm0,4.32V8.53h4.3v4.32Zm0,4.32V12.85h4.3v4.32Zm0,4.29V17.17h4.3v4.29Zm0,4.32V21.46h4.3v4.32Zm0,4.3v-4.3h4.3v4.3Zm0,4.32V30.08h4.3V34.4Zm0,4.21V34.4h4.3v4.21Zm4.3,0v4.25h-4.3V38.61Zm0-25.76V8.53h4.23v4.32Zm0,4.32V12.85h4.23v4.32Zm0,4.29V17.17h4.23v4.29Zm0,4.32V21.46h4.23v4.32Zm0,4.3v-4.3h4.23v4.3Zm0,4.32V30.08h4.23V34.4Zm0,4.21V34.4h4.23v4.21Z"/><path class="cls-1" d="M90.29,57.12V52.8h4.32v4.32Zm0,4.21V57.12h4.32v4.21Zm0,4.32V61.33h4.32v4.32Zm0,4.32V65.65h4.32V70Zm0,4.29V70h4.32v4.29Zm0,4.32V74.26h4.32v4.32Zm0,4.3v-4.3h4.32v4.3Zm0,4.32V82.88h4.32V87.2Zm0,4.21V87.2h4.32v4.21Zm4.32-34.29V52.8H98.9v4.32Zm0,34.29V87.2H98.9v4.21Zm4.29,0v4.25H94.61V91.41Zm0-34.29V52.8h4.32v4.32Zm0,34.29V87.2h4.32v4.21Zm4.32,0v4.25H98.9V91.41Zm0-34.29V52.8h4.21v4.32Zm0,8.53V61.33h4.21v4.32Zm0,4.32V65.65h4.21V70Zm0,8.61V74.26h4.21v4.32Zm0,4.3v-4.3h4.21v4.3Zm0,4.32V82.88h4.21V87.2Zm0,4.21V87.2h4.21v4.21Zm4.21,0v4.25h-4.21V91.41Zm0-34.29V52.8h4.32v4.32Zm0,8.53V61.33h4.32v4.32Zm0,4.32V65.65h4.32V70Zm0,8.61V74.26h4.32v4.32Zm0,4.3v-4.3h4.32v4.3Zm0,4.32V82.88h4.32V87.2Zm0,4.21V87.2h4.32v4.21Zm4.32,0v4.25h-4.32V91.41Zm0-34.29V52.8h4.32v4.32Zm0,8.53V61.33h4.32v4.32Zm0,4.32V65.65h4.32V70Zm0,8.61V74.26h4.32v4.32Zm0,4.3v-4.3h4.32v4.3Zm4.32-25.76V52.8h4.3v4.32Zm0,8.53V61.33h4.3v4.32Zm0,4.32V65.65h4.3V70Zm0,8.61V74.26h4.3v4.32Zm0,4.3v-4.3h4.3v4.3Zm4.3-25.76V52.8h4.31v4.32Zm0,8.53V61.33h4.31v4.32Zm0,4.32V65.65h4.31V70Zm0,4.29V70h4.31v4.29Zm0,4.32V74.26h4.31v4.32Zm0,4.3v-4.3h4.31v4.3Zm4.31-25.76V52.8H129v4.32Zm0,4.21V57.12H129v4.21Zm0,4.32V61.33H129v4.32Zm0,4.32V65.65H129V70Zm0,4.29V70H129v4.29Zm0,4.32V74.26H129v4.32Zm0,4.3v-4.3H129v4.3ZM129,61.33V57.12h4.23v4.21Zm0,4.32V61.33h4.23v4.32ZM129,70V65.65h4.23V70Z"/><path class="cls-1" d="M129,57.12V52.8h4.32v4.32Zm0,4.21V57.12h4.32v4.21Zm0,4.32V61.33h4.32v4.32ZM129,70V65.65h4.32V70Zm0,4.29V70h4.32v4.29Zm0,4.32V74.26h4.32v4.32Zm0,4.3v-4.3h4.32v4.3Zm0,4.32V82.88h4.32V87.2Zm0,4.21V87.2h4.32v4.21Zm4.32-34.29V52.8h4.3v4.32Zm0,34.29V87.2h4.3v4.21Zm4.3,0v4.25h-4.3V91.41Zm0-34.29V52.8h4.32v4.32Zm0,34.29V87.2h4.32v4.21Zm4.32,0v4.25H137.6V91.41Zm0-34.29V52.8h4.21v4.32Zm0,8.53V61.33h4.21v4.32Zm0,4.32V65.65h4.21V70Zm0,8.61V74.26h4.21v4.32Zm0,4.3v-4.3h4.21v4.3Zm0,4.32V82.88h4.21V87.2Zm0,4.21V87.2h4.21v4.21Zm4.21,0v4.25h-4.21V91.41Zm0-34.29V52.8h4.31v4.32Zm0,8.53V61.33h4.31v4.32Zm0,4.32V65.65h4.31V70Zm0,8.61V74.26h4.31v4.32Zm0,4.3v-4.3h4.31v4.3Zm0,4.32V82.88h4.31V87.2Zm0,4.21V87.2h4.31v4.21Zm4.31,0v4.25h-4.31V91.41Zm0-34.29V52.8h4.32v4.32Zm0,8.53V61.33h4.32v4.32Zm0,4.32V65.65h4.32V70Zm0,8.61V74.26h4.32v4.32Zm0,4.3v-4.3h4.32v4.3Zm0,4.32V82.88h4.32V87.2Zm0,4.21V87.2h4.32v4.21Zm4.32-34.29V52.8h4.3v4.32Zm0,34.29V87.2h4.3v4.21Zm4.3,0v4.25h-4.3V91.41Zm0-34.29V52.8h4.32v4.32Zm0,4.21V57.12h4.32v4.21Zm0,12.93V70h4.32v4.29Zm0,17.15V87.2h4.32v4.21Zm4.32,0v4.25h-4.32V91.41Zm0-30.08V57.12h4.29v4.21Zm0,4.32V61.33h4.29v4.32Zm0,4.32V65.65h4.29V70Zm0,4.29V70h4.29v4.29Zm0,4.32V74.26h4.29v4.32Zm0,4.3v-4.3h4.29v4.3Zm0,4.32V82.88h4.29V87.2Zm0,4.21V87.2h4.29v4.21Zm4.29,0v4.25h-4.29V91.41Zm0-25.76V61.33h4.24v4.32Zm0,4.32V65.65h4.24V70Zm0,4.29V70h4.24v4.29Zm0,4.32V74.26h4.24v4.32Zm0,4.3v-4.3h4.24v4.3Zm0,4.32V82.88h4.24V87.2Zm0,4.21V87.2h4.24v4.21Zm4.24,0v4.25h-4.24V91.41Z"/><path class="cls-1" d="M167.67,57.12V52.8H172v4.32Zm0,4.21V57.12H172v4.21Zm0,4.32V61.33H172v4.32Zm0,4.32V65.65H172V70Zm0,4.29V70H172v4.29Zm0,4.32V74.26H172v4.32Zm0,4.3v-4.3H172v4.3Zm0,4.32V82.88H172V87.2Zm0,4.21V87.2H172v4.21ZM172,57.12V52.8h4.3v4.32Zm0,34.29V87.2h4.3v4.21Zm4.3,0v4.25H172V91.41Zm0-34.29V52.8h4.32v4.32Zm0,34.29V87.2h4.32v4.21Zm4.32,0v4.25h-4.32V91.41Zm0-34.29V52.8h4.21v4.32Zm0,4.21V57.12h4.21v4.21Zm0,4.32V61.33h4.21v4.32Zm0,4.32V65.65h4.21V70Zm0,4.29V70h4.21v4.29Zm0,4.32V74.26h4.21v4.32Zm0,4.3v-4.3h4.21v4.3Zm0,4.32V82.88h4.21V87.2Zm0,4.21V87.2h4.21v4.21Zm4.21,0v4.25h-4.21V91.41Zm0-30.08V57.12h4.32v4.21Zm0,4.32V61.33h4.32v4.32Zm0,4.32V65.65h4.32V70Zm0,4.29V70h4.32v4.29Zm0,4.32V74.26h4.32v4.32Zm0,4.3v-4.3h4.32v4.3Zm0,4.32V82.88h4.32V87.2Zm0,4.21V87.2h4.32v4.21Zm4.32,0v4.25h-4.32V91.41Z"/><path class="cls-1" d="M184.82,57.12V52.8h4.32v4.32Zm0,4.21V57.12h4.32v4.21Zm0,4.32V61.33h4.32v4.32Zm0,4.32V65.65h4.32V70Zm0,4.29V70h4.32v4.29Zm0,4.32V74.26h4.32v4.32Zm0,4.3v-4.3h4.32v4.3Zm0,4.32V82.88h4.32V87.2Zm0,4.21V87.2h4.32v4.21Zm4.32-34.29V52.8h4.3v4.32Zm0,34.29V87.2h4.3v4.21Zm4.3,0v4.25h-4.3V91.41Zm0-34.29V52.8h4.31v4.32Zm0,34.29V87.2h4.31v4.21Zm4.31,0v4.25h-4.31V91.41Zm0-34.29V52.8H202v4.32Zm0,8.53V61.33H202v4.32Zm0,4.32V65.65H202V70Zm0,8.61V74.26H202v4.32Zm0,4.3v-4.3H202v4.3Zm0,8.53V87.2H202v4.21Zm4.21,0v4.25h-4.21V91.41Zm0-34.29V52.8h4.32v4.32Zm0,8.53V61.33h4.32v4.32ZM202,70V65.65h4.32V70Zm0,8.61V74.26h4.32v4.32Zm0,4.3v-4.3h4.32v4.3Zm0,8.53V87.2h4.32v4.21Zm4.32,0v4.25H202V91.41Zm0-34.29V52.8h4.32v4.32Zm0,8.53V61.33h4.32v4.32Zm0,4.32V65.65h4.32V70Zm0,8.61V74.26h4.32v4.32Zm0,4.3v-4.3h4.32v4.3Zm0,8.53V87.2h4.32v4.21Zm4.32,0v4.25h-4.32V91.41Zm0-34.29V52.8h4.3v4.32Zm0,8.53V61.33h4.3v4.32Zm0,4.32V65.65h4.3V70Zm0,8.61V74.26h4.3v4.32Zm0,4.3v-4.3h4.3v4.3Zm0,8.53V87.2h4.3v4.21Zm4.3,0v4.25h-4.3V91.41Zm0-34.29V52.8h4.32v4.32Zm0,8.53V61.33h4.32v4.32Zm0,4.32V65.65h4.32V70Zm0,4.29V70h4.32v4.29Zm0,4.32V74.26h4.32v4.32Zm0,4.3v-4.3h4.32v4.3Zm0,8.53V87.2h4.32v4.21Zm4.32,0v4.25H214.9V91.41Zm0-34.29V52.8h4.29v4.32Zm0,4.21V57.12h4.29v4.21Zm0,4.32V61.33h4.29v4.32Zm0,4.32V65.65h4.29V70Zm0,4.29V70h4.29v4.29Zm0,4.32V74.26h4.29v4.32Zm0,4.3v-4.3h4.29v4.3Zm0,4.32V82.88h4.29V87.2Zm0,4.21V87.2h4.29v4.21Zm4.29,0v4.25h-4.29V91.41Zm0-30.08V57.12h4.24v4.21Zm0,4.32V61.33h4.24v4.32Zm0,4.32V65.65h4.24V70Zm0,17.23V82.88h4.24V87.2Zm0,4.21V87.2h4.24v4.21Zm4.24,0v4.25h-4.24V91.41Z"/><path class="cls-1" d="M223.51,57.12V52.8h4.32v4.32Zm0,4.21V57.12h4.32v4.21Zm0,4.32V61.33h4.32v4.32Zm0,4.32V65.65h4.32V70Zm0,4.29V70h4.32v4.29Zm0,4.32V74.26h4.32v4.32Zm0,4.3v-4.3h4.32v4.3Zm0,4.32V82.88h4.32V87.2Zm0,4.21V87.2h4.32v4.21Zm4.32-34.29V52.8h4.3v4.32Zm0,34.29V87.2h4.3v4.21Zm4.3,0v4.25h-4.3V91.41Zm0-34.29V52.8h4.32v4.32Zm0,34.29V87.2h4.32v4.21Zm4.32,0v4.25h-4.32V91.41Zm0-34.29V52.8h4.21v4.32Zm0,4.21V57.12h4.21v4.21Zm0,12.93V70h4.21v4.29Zm0,4.32V74.26h4.21v4.32Zm0,4.3v-4.3h4.21v4.3Zm0,4.32V82.88h4.21V87.2Zm0,4.21V87.2h4.21v4.21Zm4.21,0v4.25h-4.21V91.41Zm0-30.08V57.12H245v4.21Zm0,4.32V61.33H245v4.32Zm0,12.93V74.26H245v4.32Zm0,4.3v-4.3H245v4.3Zm0,4.32V82.88H245V87.2Zm0,4.21V87.2H245v4.21Zm4.32,0v4.25h-4.32V91.41Zm0-34.29V52.8h4.31v4.32Zm0,4.21V57.12h4.31v4.21Zm0,4.32V61.33h4.31v4.32ZM245,70V65.65h4.31V70Zm0,12.91v-4.3h4.31v4.3Zm0,4.32V82.88h4.31V87.2Zm0,4.21V87.2h4.31v4.21Zm4.31-34.29V52.8h4.3v4.32Zm0,34.29V87.2h4.3v4.21Zm4.3,0v4.25h-4.3V91.41Zm0-34.29V52.8h4.32v4.32Zm0,34.29V87.2h4.32v4.21Zm4.32,0v4.25h-4.32V91.41Zm0-34.29V52.8h4.3v4.32Zm0,4.21V57.12h4.3v4.21Zm0,4.32V61.33h4.3v4.32Zm0,4.32V65.65h4.3V70Zm0,4.29V70h4.3v4.29Zm0,4.32V74.26h4.3v4.32Zm0,4.3v-4.3h4.3v4.3Zm0,4.32V82.88h4.3V87.2Zm0,4.21V87.2h4.3v4.21Zm4.3,0v4.25h-4.3V91.41Zm0-30.08V57.12h4.23v4.21Zm0,4.32V61.33h4.23v4.32Zm0,4.32V65.65h4.23V70Zm0,4.29V70h4.23v4.29Zm0,4.32V74.26h4.23v4.32Zm0,4.3v-4.3h4.23v4.3Zm0,4.32V82.88h4.23V87.2Zm0,4.21V87.2h4.23v4.21Zm4.23,0v4.25h-4.23V91.41Z"/><path class="cls-1" d="M262.21,57.12V52.8h4.31v4.32Zm0,4.21V57.12h4.31v4.21Zm0,4.32V61.33h4.31v4.32Zm0,4.32V65.65h4.31V70Zm0,4.29V70h4.31v4.29Zm0,4.32V74.26h4.31v4.32Zm0,4.3v-4.3h4.31v4.3Zm0,4.32V82.88h4.31V87.2Zm0,4.21V87.2h4.31v4.21Zm4.31-34.29V52.8h4.3v4.32Zm0,34.29V87.2h4.3v4.21Zm4.3,0v4.25h-4.3V91.41Zm0-34.29V52.8h4.32v4.32Zm0,34.29V87.2h4.32v4.21Zm4.32,0v4.25h-4.32V91.41Zm0-34.29V52.8h4.21v4.32Zm0,8.53V61.33h4.21v4.32Zm0,4.32V65.65h4.21V70Zm0,4.29V70h4.21v4.29Zm0,4.32V74.26h4.21v4.32Zm0,4.3v-4.3h4.21v4.3Zm0,8.53V87.2h4.21v4.21Zm4.21,0v4.25h-4.21V91.41Zm0-34.29V52.8h4.32v4.32Zm0,8.53V61.33h4.32v4.32Zm0,4.32V65.65h4.32V70Zm0,4.29V70h4.32v4.29Zm0,4.32V74.26h4.32v4.32Zm0,4.3v-4.3h4.32v4.3Zm0,8.53V87.2h4.32v4.21Zm4.32,0v4.25h-4.32V91.41Zm0-34.29V52.8H288v4.32Zm0,12.85V65.65H288V70Zm0,4.29V70H288v4.29Zm0,4.32V74.26H288v4.32Zm0,12.83V87.2H288v4.21Zm4.32,0v4.25h-4.32V91.41Zm0-34.29V52.8h4.29v4.32Zm0,4.21V57.12h4.29v4.21Zm0,25.87V82.88h4.29V87.2Zm0,4.21V87.2h4.29v4.21Zm4.29,0v4.25H288V91.41Zm0-30.08V57.12h4.32v4.21Zm0,4.32V61.33h4.32v4.32Zm0,17.23v-4.3h4.32v4.3Zm0,4.32V82.88h4.32V87.2Zm0,4.21V87.2h4.32v4.21Zm4.32,0v4.25h-4.32V91.41Zm0-25.76V61.33h4.3v4.32Zm0,4.32V65.65h4.3V70Zm0,4.29V70h4.3v4.29Zm0,4.32V74.26h4.3v4.32Zm0,4.3v-4.3h4.3v4.3Zm0,4.32V82.88h4.3V87.2Zm0,4.21V87.2h4.3v4.21ZM300.9,70V65.65h4.23V70Zm0,4.29V70h4.23v4.29Zm0,4.32V74.26h4.23v4.32Zm0,4.3v-4.3h4.23v4.3Zm0,4.32V82.88h4.23V87.2Z"/></g></g></svg>